<svg xmlns="http://www.w3.org/2000/svg" viewBox="0 0 980 620" width="980" height="620">
<defs><marker id="seta" markerUnits="userSpaceOnUse" markerWidth="12" markerHeight="12" refX="11" refY="6" orient="auto"><path d="M1,1 L11,6 L1,11 z" fill="#5b6b7f"/></marker><marker id="bola" markerUnits="userSpaceOnUse" markerWidth="10" markerHeight="10" refX="5" refY="5" orient="auto"><circle cx="5" cy="5" r="3.2" fill="#ffffff" stroke="#3c6ea5" stroke-width="1.4"/></marker></defs>
<rect x="0" y="0" width="980" height="620" rx="0" fill="#f3f5f8"/>
<rect x="10" y="10" width="960" height="600" rx="4" fill="#ffffff" stroke="#8f98a3" stroke-width="1"/>
<rect x="10" y="10" width="960" height="26" rx="4" fill="#eef1f5" stroke="#c9ced6" stroke-width="1"/>
<text x="24" y="28" font-family="DejaVu Sans, Segoe UI, Verdana, sans-serif" font-size="12" fill="#1f2933" font-weight="700">SQL Server Management Studio  -  curso_integridade_fiscal (SRV-SEFAZ\FISCO)</text>
<rect x="900" y="16" width="14" height="14" rx="0" fill="#dfe4ea" stroke="#b6bcc4" stroke-width="1"/>
<rect x="920" y="16" width="14" height="14" rx="0" fill="#dfe4ea" stroke="#b6bcc4" stroke-width="1"/>
<rect x="940" y="16" width="14" height="14" rx="0" fill="#e8b3b3" stroke="#b6bcc4" stroke-width="1"/>
<rect x="10" y="36" width="960" height="22" rx="0" fill="#eef1f5" stroke="#c9ced6" stroke-width="1"/>
<text x="24" y="51" font-family="DejaVu Sans, Segoe UI, Verdana, sans-serif" font-size="11" fill="#1f2933">Arquivo</text>
<text x="94" y="51" font-family="DejaVu Sans, Segoe UI, Verdana, sans-serif" font-size="11" fill="#1f2933">Editar</text>
<text x="154" y="51" font-family="DejaVu Sans, Segoe UI, Verdana, sans-serif" font-size="11" fill="#1f2933">Exibir</text>
<text x="214" y="51" font-family="DejaVu Sans, Segoe UI, Verdana, sans-serif" font-size="11" fill="#b3261e" font-weight="700">Consulta</text>
<text x="289" y="51" font-family="DejaVu Sans, Segoe UI, Verdana, sans-serif" font-size="11" fill="#1f2933">Projeto</text>
<text x="354" y="51" font-family="DejaVu Sans, Segoe UI, Verdana, sans-serif" font-size="11" fill="#1f2933">Ferramentas</text>
<text x="449" y="51" font-family="DejaVu Sans, Segoe UI, Verdana, sans-serif" font-size="11" fill="#1f2933">Janela</text>
<text x="509" y="51" font-family="DejaVu Sans, Segoe UI, Verdana, sans-serif" font-size="11" fill="#1f2933">Ajuda</text>
<rect x="10" y="58" width="960" height="28" rx="0" fill="#eef1f5" stroke="#c9ced6" stroke-width="1"/>
<rect x="24" y="65" width="14" height="14" rx="2" fill="#5b6b7f"/>
<rect x="44" y="65" width="14" height="14" rx="2" fill="#5b6b7f"/>
<polygon points="72,65 86,72 72,79" fill="#2e7d32"/>
<text x="92" y="77" font-family="DejaVu Sans, Segoe UI, Verdana, sans-serif" font-size="11" fill="#1f2933">Executar</text>
<rect x="150" y="64" width="150" height="16" rx="0" fill="#ffffff" stroke="#c9ced6" stroke-width="1"/>
<text x="156" y="76" font-family="DejaVu Sans, Segoe UI, Verdana, sans-serif" font-size="10.5" fill="#1f2933">curso_integridade_fiscal</text>
<rect x="315" y="65" width="14" height="14" rx="2" fill="#5b6b7f"/>
<rect x="335" y="65" width="14" height="14" rx="2" fill="#5b6b7f"/>
<rect x="355" y="65" width="14" height="14" rx="2" fill="#5b6b7f"/>
<text x="378" y="77" font-family="DejaVu Sans, Segoe UI, Verdana, sans-serif" font-size="11" fill="#b3261e" font-weight="700">Ctrl+L  Plano Estimado    /    Ctrl+M  Incluir Plano Real</text>
<rect x="18" y="94" width="238" height="500" rx="0" fill="#ffffff" stroke="#c9ced6" stroke-width="1"/>
<rect x="18" y="94" width="238" height="20" rx="0" fill="#e8edf3" stroke="#c9ced6" stroke-width="1"/>
<text x="26" y="108" font-family="DejaVu Sans, Segoe UI, Verdana, sans-serif" font-size="11" fill="#1f2933" font-weight="700">Pesquisador de Objetos</text>
<polygon points="20,126 27,126 23.5,131" fill="#5b6b7f"/>
<rect x="32" y="124" width="11" height="10" rx="0" fill="#dfe4ea" stroke="#5b6b7f" stroke-width="1"/>
<text x="48" y="132" font-family="DejaVu Sans, Segoe UI, Verdana, sans-serif" font-size="10.5" fill="#1f2933">SRV-SEFAZ\FISCO (SQL Server 16.0)</text>
<polygon points="34,144 41,144 37.5,149" fill="#5b6b7f"/>
<path d="M46,143 h4 l1.5,2 h5.5 v7 h-11 z" fill="#f5e2a8" stroke="#c8a53c"/>
<text x="62" y="150" font-family="DejaVu Sans, Segoe UI, Verdana, sans-serif" font-size="10.5" fill="#1f2933">Bancos de Dados</text>
<polygon points="48,162 55,162 51.5,167" fill="#5b6b7f"/>
<rect x="60" y="160" width="11" height="10" rx="3" fill="#cfe0f5" stroke="#5b6b7f" stroke-width="1"/>
<text x="76" y="168" font-family="DejaVu Sans, Segoe UI, Verdana, sans-serif" font-size="10.5" fill="#1f2933">curso_integridade_fiscal</text>
<polygon points="62,180 69,180 65.5,185" fill="#5b6b7f"/>
<path d="M74,179 h4 l1.5,2 h5.5 v7 h-11 z" fill="#f5e2a8" stroke="#c8a53c"/>
<text x="90" y="186" font-family="DejaVu Sans, Segoe UI, Verdana, sans-serif" font-size="10.5" fill="#1f2933">Tabelas</text>
<polygon points="76,197 81,200.5 76,204" fill="#5b6b7f"/>
<rect x="88" y="197" width="11" height="9" rx="0" fill="#ffffff" stroke="#5b6b7f" stroke-width="1"/>
<line x1="88" y1="200" x2="99" y2="200" stroke="#5b6b7f" stroke-width="1"/>
<line x1="92" y1="197" x2="92" y2="206" stroke="#5b6b7f" stroke-width="1"/>
<text x="104" y="204" font-family="DejaVu Sans, Segoe UI, Verdana, sans-serif" font-size="10.5" fill="#1f2933">dbo.auditor_fiscal</text>
<polygon points="76,215 81,218.5 76,222" fill="#5b6b7f"/>
<rect x="88" y="215" width="11" height="9" rx="0" fill="#ffffff" stroke="#5b6b7f" stroke-width="1"/>
<line x1="88" y1="218" x2="99" y2="218" stroke="#5b6b7f" stroke-width="1"/>
<line x1="92" y1="215" x2="92" y2="224" stroke="#5b6b7f" stroke-width="1"/>
<text x="104" y="222" font-family="DejaVu Sans, Segoe UI, Verdana, sans-serif" font-size="10.5" fill="#1f2933">dbo.auto_infracao</text>
<polygon points="76,234 83,234 79.5,239" fill="#5b6b7f"/>
<rect x="88" y="233" width="11" height="9" rx="0" fill="#ffffff" stroke="#5b6b7f" stroke-width="1"/>
<line x1="88" y1="236" x2="99" y2="236" stroke="#5b6b7f" stroke-width="1"/>
<line x1="92" y1="233" x2="92" y2="242" stroke="#5b6b7f" stroke-width="1"/>
<text x="104" y="240" font-family="DejaVu Sans, Segoe UI, Verdana, sans-serif" font-size="10.5" fill="#0b57d0" font-weight="700">dbo.contribuinte</text>
<polygon points="90,252 97,252 93.5,257" fill="#5b6b7f"/>
<path d="M102,251 h4 l1.5,2 h5.5 v7 h-11 z" fill="#f5e2a8" stroke="#c8a53c"/>
<text x="118" y="258" font-family="DejaVu Sans, Segoe UI, Verdana, sans-serif" font-size="10.5" fill="#1f2933">Colunas</text>
<circle cx="119" cy="273" r="3" fill="#e8c33c" stroke="#a8862c"/>
<line x1="122" y1="273" x2="128" y2="273" stroke="#a8862c" stroke-width="1.6"/>
<line x1="126" y1="273" x2="126" y2="276" stroke="#a8862c" stroke-width="1.6"/>
<text x="132" y="276" font-family="DejaVu Sans, Segoe UI, Verdana, sans-serif" font-size="10.5" fill="#1f2933">id_contribuinte (PK, int)</text>
<text x="132" y="294" font-family="DejaVu Sans, Segoe UI, Verdana, sans-serif" font-size="10.5" fill="#1f2933">cnpj (char(14), not null)</text>
<text x="132" y="312" font-family="DejaVu Sans, Segoe UI, Verdana, sans-serif" font-size="10.5" fill="#1f2933">razao_social (varchar(120))</text>
<text x="132" y="330" font-family="DejaVu Sans, Segoe UI, Verdana, sans-serif" font-size="10.5" fill="#1f2933">id_municipio (FK, int)</text>
<polygon points="90,341 95,344.5 90,348" fill="#5b6b7f"/>
<path d="M102,341 h4 l1.5,2 h5.5 v7 h-11 z" fill="#f5e2a8" stroke="#c8a53c"/>
<text x="118" y="348" font-family="DejaVu Sans, Segoe UI, Verdana, sans-serif" font-size="10.5" fill="#1f2933">Chaves</text>
<polygon points="90,359 95,362.5 90,366" fill="#5b6b7f"/>
<path d="M102,359 h4 l1.5,2 h5.5 v7 h-11 z" fill="#f5e2a8" stroke="#c8a53c"/>
<text x="118" y="366" font-family="DejaVu Sans, Segoe UI, Verdana, sans-serif" font-size="10.5" fill="#1f2933">Restricoes</text>
<polygon points="90,377 95,380.5 90,384" fill="#5b6b7f"/>
<path d="M102,377 h4 l1.5,2 h5.5 v7 h-11 z" fill="#f5e2a8" stroke="#c8a53c"/>
<text x="118" y="384" font-family="DejaVu Sans, Segoe UI, Verdana, sans-serif" font-size="10.5" fill="#1f2933">Indices</text>
<polygon points="76,395 81,398.5 76,402" fill="#5b6b7f"/>
<rect x="88" y="395" width="11" height="9" rx="0" fill="#ffffff" stroke="#5b6b7f" stroke-width="1"/>
<line x1="88" y1="398" x2="99" y2="398" stroke="#5b6b7f" stroke-width="1"/>
<line x1="92" y1="395" x2="92" y2="404" stroke="#5b6b7f" stroke-width="1"/>
<text x="104" y="402" font-family="DejaVu Sans, Segoe UI, Verdana, sans-serif" font-size="10.5" fill="#1f2933">dbo.efd_c100</text>
<polygon points="76,413 81,416.5 76,420" fill="#5b6b7f"/>
<rect x="88" y="413" width="11" height="9" rx="0" fill="#ffffff" stroke="#5b6b7f" stroke-width="1"/>
<line x1="88" y1="416" x2="99" y2="416" stroke="#5b6b7f" stroke-width="1"/>
<line x1="92" y1="413" x2="92" y2="422" stroke="#5b6b7f" stroke-width="1"/>
<text x="104" y="420" font-family="DejaVu Sans, Segoe UI, Verdana, sans-serif" font-size="10.5" fill="#1f2933">dbo.efd_c170</text>
<polygon points="76,431 81,434.5 76,438" fill="#5b6b7f"/>
<rect x="88" y="431" width="11" height="9" rx="0" fill="#ffffff" stroke="#5b6b7f" stroke-width="1"/>
<line x1="88" y1="434" x2="99" y2="434" stroke="#5b6b7f" stroke-width="1"/>
<line x1="92" y1="431" x2="92" y2="440" stroke="#5b6b7f" stroke-width="1"/>
<text x="104" y="438" font-family="DejaVu Sans, Segoe UI, Verdana, sans-serif" font-size="10.5" fill="#1f2933">dbo.municipio</text>
<polygon points="76,449 81,452.5 76,456" fill="#5b6b7f"/>
<rect x="88" y="449" width="11" height="9" rx="0" fill="#ffffff" stroke="#5b6b7f" stroke-width="1"/>
<line x1="88" y1="452" x2="99" y2="452" stroke="#5b6b7f" stroke-width="1"/>
<line x1="92" y1="449" x2="92" y2="458" stroke="#5b6b7f" stroke-width="1"/>
<text x="104" y="456" font-family="DejaVu Sans, Segoe UI, Verdana, sans-serif" font-size="10.5" fill="#1f2933">dbo.nfe</text>
<polygon points="76,467 81,470.5 76,474" fill="#5b6b7f"/>
<rect x="88" y="467" width="11" height="9" rx="0" fill="#ffffff" stroke="#5b6b7f" stroke-width="1"/>
<line x1="88" y1="470" x2="99" y2="470" stroke="#5b6b7f" stroke-width="1"/>
<line x1="92" y1="467" x2="92" y2="476" stroke="#5b6b7f" stroke-width="1"/>
<text x="104" y="474" font-family="DejaVu Sans, Segoe UI, Verdana, sans-serif" font-size="10.5" fill="#1f2933">dbo.nfe_item</text>
<polygon points="76,485 81,488.5 76,492" fill="#5b6b7f"/>
<rect x="88" y="485" width="11" height="9" rx="0" fill="#ffffff" stroke="#5b6b7f" stroke-width="1"/>
<line x1="88" y1="488" x2="99" y2="488" stroke="#5b6b7f" stroke-width="1"/>
<line x1="92" y1="485" x2="92" y2="494" stroke="#5b6b7f" stroke-width="1"/>
<text x="104" y="492" font-family="DejaVu Sans, Segoe UI, Verdana, sans-serif" font-size="10.5" fill="#1f2933">dbo.ordem_servico</text>
<polygon points="62,503 67,506.5 62,510" fill="#5b6b7f"/>
<path d="M74,503 h4 l1.5,2 h5.5 v7 h-11 z" fill="#f5e2a8" stroke="#c8a53c"/>
<text x="90" y="510" font-family="DejaVu Sans, Segoe UI, Verdana, sans-serif" font-size="10.5" fill="#1f2933">Exibicoes</text>
<polygon points="62,521 67,524.5 62,528" fill="#5b6b7f"/>
<path d="M74,521 h4 l1.5,2 h5.5 v7 h-11 z" fill="#f5e2a8" stroke="#c8a53c"/>
<text x="90" y="528" font-family="DejaVu Sans, Segoe UI, Verdana, sans-serif" font-size="10.5" fill="#1f2933">Diagramas de BD</text>
<polygon points="62,539 67,542.5 62,546" fill="#5b6b7f"/>
<path d="M74,539 h4 l1.5,2 h5.5 v7 h-11 z" fill="#f5e2a8" stroke="#c8a53c"/>
<text x="90" y="546" font-family="DejaVu Sans, Segoe UI, Verdana, sans-serif" font-size="10.5" fill="#1f2933">Programacao</text>
<text x="30" y="578" font-family="DejaVu Sans, Segoe UI, Verdana, sans-serif" font-size="11" fill="#b3261e" font-weight="700">1  Explorar sem digitar SQL</text>
<rect x="262" y="94" width="700" height="240" rx="0" fill="#ffffff" stroke="#c9ced6" stroke-width="1"/>
<rect x="262" y="94" width="700" height="22" rx="0" fill="#e8edf3" stroke="#c9ced6" stroke-width="1"/>
<rect x="266" y="96" width="215" height="20" rx="0" fill="#ffffff" stroke="#c9ced6" stroke-width="1"/>
<text x="274" y="110" font-family="DejaVu Sans, Segoe UI, Verdana, sans-serif" font-size="10.5" fill="#1f2933">SQLQuery1.sql - malha_202501   x</text>
<text x="278" y="140" font-family="DejaVu Sans Mono, Consolas, monospace" font-size="11" fill="#008000" textLength="443.895" lengthAdjust="spacing">-- Omissao de escrituracao: NF-e autorizada sem C100 correspondente</text>
<text x="278" y="158" font-family="DejaVu Sans Mono, Consolas, monospace" font-size="11" fill="#0000c0" textLength="39.7518" lengthAdjust="spacing">SELECT</text>
<text x="324.377" y="158" font-family="DejaVu Sans Mono, Consolas, monospace" font-size="11" fill="#1f2933" textLength="351.141" lengthAdjust="spacing">c.cnpj, c.razao_social, n.chave_acesso, n.valor_total</text>
<text x="278" y="176" font-family="DejaVu Sans Mono, Consolas, monospace" font-size="11" fill="#0000c0" textLength="26.5012" lengthAdjust="spacing">FROM</text>
<text x="324.377" y="176" font-family="DejaVu Sans Mono, Consolas, monospace" font-size="11" fill="#1f2933" textLength="46.3771" lengthAdjust="spacing">dbo.nfe</text>
<text x="377.38" y="176" font-family="DejaVu Sans Mono, Consolas, monospace" font-size="11" fill="#0000c0" textLength="13.2506" lengthAdjust="spacing">AS</text>
<text x="397.255" y="176" font-family="DejaVu Sans Mono, Consolas, monospace" font-size="11" fill="#1f2933" textLength="6.6253" lengthAdjust="spacing">n</text>
<text x="324.377" y="194" font-family="DejaVu Sans Mono, Consolas, monospace" font-size="11" fill="#0000c0" textLength="66.253" lengthAdjust="spacing">INNER JOIN</text>
<text x="397.255" y="194" font-family="DejaVu Sans Mono, Consolas, monospace" font-size="11" fill="#1f2933" textLength="106.005" lengthAdjust="spacing">dbo.contribuinte</text>
<text x="509.885" y="194" font-family="DejaVu Sans Mono, Consolas, monospace" font-size="11" fill="#0000c0" textLength="13.2506" lengthAdjust="spacing">AS</text>
<text x="529.761" y="194" font-family="DejaVu Sans Mono, Consolas, monospace" font-size="11" fill="#1f2933" textLength="6.6253" lengthAdjust="spacing">c</text>
<text x="543.012" y="194" font-family="DejaVu Sans Mono, Consolas, monospace" font-size="11" fill="#0000c0" textLength="13.2506" lengthAdjust="spacing">ON</text>
<text x="562.888" y="194" font-family="DejaVu Sans Mono, Consolas, monospace" font-size="11" fill="#1f2933" textLength="218.635" lengthAdjust="spacing">c.id_contribuinte = n.id_emitente</text>
<text x="278" y="212" font-family="DejaVu Sans Mono, Consolas, monospace" font-size="11" fill="#0000c0" textLength="33.1265" lengthAdjust="spacing">WHERE</text>
<text x="324.377" y="212" font-family="DejaVu Sans Mono, Consolas, monospace" font-size="11" fill="#1f2933" textLength="79.5036" lengthAdjust="spacing">n.situacao =</text>
<text x="410.506" y="212" font-family="DejaVu Sans Mono, Consolas, monospace" font-size="11" fill="#a31515" textLength="79.5036" lengthAdjust="spacing">'AUTORIZADA'</text>
<text x="291.251" y="230" font-family="DejaVu Sans Mono, Consolas, monospace" font-size="11" fill="#0000c0" textLength="19.8759" lengthAdjust="spacing">AND</text>
<text x="324.377" y="230" font-family="DejaVu Sans Mono, Consolas, monospace" font-size="11" fill="#0000c0" textLength="66.253" lengthAdjust="spacing">NOT EXISTS</text>
<text x="397.255" y="230" font-family="DejaVu Sans Mono, Consolas, monospace" font-size="11" fill="#1f2933" textLength="6.6253" lengthAdjust="spacing">(</text>
<text x="403.881" y="230" font-family="DejaVu Sans Mono, Consolas, monospace" font-size="11" fill="#0000c0" textLength="39.7518" lengthAdjust="spacing">SELECT</text>
<text x="450.258" y="230" font-family="DejaVu Sans Mono, Consolas, monospace" font-size="11" fill="#1f2933" textLength="6.6253" lengthAdjust="spacing">1</text>
<text x="463.508" y="230" font-family="DejaVu Sans Mono, Consolas, monospace" font-size="11" fill="#0000c0" textLength="26.5012" lengthAdjust="spacing">FROM</text>
<text x="496.635" y="230" font-family="DejaVu Sans Mono, Consolas, monospace" font-size="11" fill="#1f2933" textLength="79.5036" lengthAdjust="spacing">dbo.efd_c100</text>
<text x="582.764" y="230" font-family="DejaVu Sans Mono, Consolas, monospace" font-size="11" fill="#0000c0" textLength="13.2506" lengthAdjust="spacing">AS</text>
<text x="602.64" y="230" font-family="DejaVu Sans Mono, Consolas, monospace" font-size="11" fill="#1f2933" textLength="6.6253" lengthAdjust="spacing">e</text>
<text x="403.881" y="248" font-family="DejaVu Sans Mono, Consolas, monospace" font-size="11" fill="#0000c0" textLength="33.1265" lengthAdjust="spacing">WHERE</text>
<text x="443.632" y="248" font-family="DejaVu Sans Mono, Consolas, monospace" font-size="11" fill="#1f2933" textLength="212.01" lengthAdjust="spacing">e.chave_acesso = n.chave_acesso)</text>
<text x="278" y="266" font-family="DejaVu Sans Mono, Consolas, monospace" font-size="11" fill="#0000c0" textLength="53.0024" lengthAdjust="spacing">ORDER BY</text>
<text x="337.628" y="266" font-family="DejaVu Sans Mono, Consolas, monospace" font-size="11" fill="#1f2933" textLength="86.1289" lengthAdjust="spacing">n.valor_total</text>
<text x="430.382" y="266" font-family="DejaVu Sans Mono, Consolas, monospace" font-size="11" fill="#0000c0" textLength="26.5012" lengthAdjust="spacing">DESC</text>
<text x="456.883" y="266" font-family="DejaVu Sans Mono, Consolas, monospace" font-size="11" fill="#1f2933" textLength="6.6253" lengthAdjust="spacing">;</text>
<rect x="470" y="272" width="250" height="52" rx="0" fill="#ffffff" stroke="#8a8a8a" stroke-width="1"/>
<rect x="470" y="272" width="250" height="17" rx="0" fill="#e6f0fb" stroke="#8a8a8a" stroke-width="1"/>
<rect x="476" y="278" width="11" height="9" rx="0" fill="#ffffff" stroke="#5b6b7f" stroke-width="1"/>
<line x1="476" y1="281" x2="487" y2="281" stroke="#5b6b7f" stroke-width="1"/>
<line x1="480" y1="278" x2="480" y2="287" stroke="#5b6b7f" stroke-width="1"/>
<text x="492" y="285" font-family="DejaVu Sans, Segoe UI, Verdana, sans-serif" font-size="10.5" fill="#1f2933">valor_total   (decimal(15,2), not null)</text>
<rect x="476" y="296" width="11" height="9" rx="0" fill="#ffffff" stroke="#5b6b7f" stroke-width="1"/>
<line x1="476" y1="299" x2="487" y2="299" stroke="#5b6b7f" stroke-width="1"/>
<line x1="480" y1="296" x2="480" y2="305" stroke="#5b6b7f" stroke-width="1"/>
<text x="492" y="303" font-family="DejaVu Sans, Segoe UI, Verdana, sans-serif" font-size="10.5" fill="#1f2933">valor_icms</text>
<text x="476" y="320" font-family="DejaVu Sans, Segoe UI, Verdana, sans-serif" font-size="10.5" fill="#1f2933" font-weight="700">f</text>
<text x="492" y="320" font-family="DejaVu Sans, Segoe UI, Verdana, sans-serif" font-size="10.5" fill="#1f2933">valor_total_item</text>
<text x="736" y="268" font-family="DejaVu Sans, Segoe UI, Verdana, sans-serif" font-size="11" fill="#b3261e" font-weight="700">2  IntelliSense</text>
<rect x="262" y="340" width="700" height="254" rx="0" fill="#ffffff" stroke="#c9ced6" stroke-width="1"/>
<rect x="262" y="340" width="700" height="22" rx="0" fill="#e8edf3" stroke="#c9ced6" stroke-width="1"/>
<text x="272" y="356" font-family="DejaVu Sans, Segoe UI, Verdana, sans-serif" font-size="11" fill="#0b57d0" font-weight="700">Resultados</text>
<text x="362" y="356" font-family="DejaVu Sans, Segoe UI, Verdana, sans-serif" font-size="11" fill="#1f2933">Mensagens</text>
<text x="442" y="356" font-family="DejaVu Sans, Segoe UI, Verdana, sans-serif" font-size="11" fill="#1f2933">Estatisticas do Cliente</text>
<text x="582" y="356" font-family="DejaVu Sans, Segoe UI, Verdana, sans-serif" font-size="11" fill="#1f2933">Plano de Execucao</text>
<rect x="270" y="368" width="684" height="22" rx="0" fill="#eef1f5" stroke="#c9ced6" stroke-width="1"/>
<text x="276" y="384" font-family="DejaVu Sans, Segoe UI, Verdana, sans-serif" font-size="10.5" fill="#1f2933" font-weight="700">cnpj</text>
<text x="398" y="384" font-family="DejaVu Sans, Segoe UI, Verdana, sans-serif" font-size="10.5" fill="#1f2933" font-weight="700">razao_social</text>
<text x="638" y="384" font-family="DejaVu Sans, Segoe UI, Verdana, sans-serif" font-size="10.5" fill="#1f2933" font-weight="700">chave_acesso</text>
<text x="858" y="384" font-family="DejaVu Sans, Segoe UI, Verdana, sans-serif" font-size="10.5" fill="#1f2933" font-weight="700">valor_total</text>
<text x="276" y="406" font-family="DejaVu Sans, Segoe UI, Verdana, sans-serif" font-size="10.5" fill="#1f2933">12345678000190</text>
<text x="398" y="406" font-family="DejaVu Sans, Segoe UI, Verdana, sans-serif" font-size="10.5" fill="#1f2933">ALFA DISTRIBUIDORA DE BEBIDAS LTDA</text>
<text x="638" y="406" font-family="DejaVu Sans, Segoe UI, Verdana, sans-serif" font-size="10.5" fill="#1f2933">2525031234567800019055...</text>
<text x="858" y="406" font-family="DejaVu Sans, Segoe UI, Verdana, sans-serif" font-size="10.5" fill="#1f2933">184.320,00</text>
<rect x="270" y="412" width="684" height="22" rx="0" fill="#fafbfc"/>
<text x="276" y="428" font-family="DejaVu Sans, Segoe UI, Verdana, sans-serif" font-size="10.5" fill="#1f2933">98765432000155</text>
<text x="398" y="428" font-family="DejaVu Sans, Segoe UI, Verdana, sans-serif" font-size="10.5" fill="#1f2933">BETA COMERCIO DE ALIMENTOS S/A</text>
<text x="638" y="428" font-family="DejaVu Sans, Segoe UI, Verdana, sans-serif" font-size="10.5" fill="#1f2933">2525029876543200015555...</text>
<text x="858" y="428" font-family="DejaVu Sans, Segoe UI, Verdana, sans-serif" font-size="10.5" fill="#1f2933">97.550,40</text>
<text x="276" y="450" font-family="DejaVu Sans, Segoe UI, Verdana, sans-serif" font-size="10.5" fill="#1f2933">45678912000133</text>
<text x="398" y="450" font-family="DejaVu Sans, Segoe UI, Verdana, sans-serif" font-size="10.5" fill="#1f2933">GAMA ATACADISTA LTDA</text>
<text x="638" y="450" font-family="DejaVu Sans, Segoe UI, Verdana, sans-serif" font-size="10.5" fill="#1f2933">2525034567891200013355...</text>
<text x="858" y="450" font-family="DejaVu Sans, Segoe UI, Verdana, sans-serif" font-size="10.5" fill="#1f2933">61.900,00</text>
<rect x="270" y="456" width="684" height="22" rx="0" fill="#fafbfc"/>
<text x="276" y="472" font-family="DejaVu Sans, Segoe UI, Verdana, sans-serif" font-size="10.5" fill="#1f2933">32165498000177</text>
<text x="398" y="472" font-family="DejaVu Sans, Segoe UI, Verdana, sans-serif" font-size="10.5" fill="#1f2933">DELTA TRANSPORTES E LOGISTICA</text>
<text x="638" y="472" font-family="DejaVu Sans, Segoe UI, Verdana, sans-serif" font-size="10.5" fill="#1f2933">2525013216549800017755...</text>
<text x="858" y="472" font-family="DejaVu Sans, Segoe UI, Verdana, sans-serif" font-size="10.5" fill="#1f2933">43.115,90</text>
<text x="276" y="494" font-family="DejaVu Sans, Segoe UI, Verdana, sans-serif" font-size="10.5" fill="#1f2933">65498732000122</text>
<text x="398" y="494" font-family="DejaVu Sans, Segoe UI, Verdana, sans-serif" font-size="10.5" fill="#1f2933">EPSILON COMERCIO VAREJISTA ME</text>
<text x="638" y="494" font-family="DejaVu Sans, Segoe UI, Verdana, sans-serif" font-size="10.5" fill="#1f2933">2525023216549800012255...</text>
<text x="858" y="494" font-family="DejaVu Sans, Segoe UI, Verdana, sans-serif" font-size="10.5" fill="#1f2933">28.740,00</text>
<line x1="270" y1="368" x2="954" y2="368" stroke="#d7dce3" stroke-width="1"/>
<line x1="270" y1="390" x2="954" y2="390" stroke="#d7dce3" stroke-width="1"/>
<line x1="270" y1="412" x2="954" y2="412" stroke="#d7dce3" stroke-width="1"/>
<line x1="270" y1="434" x2="954" y2="434" stroke="#d7dce3" stroke-width="1"/>
<line x1="270" y1="456" x2="954" y2="456" stroke="#d7dce3" stroke-width="1"/>
<line x1="270" y1="478" x2="954" y2="478" stroke="#d7dce3" stroke-width="1"/>
<line x1="270" y1="500" x2="954" y2="500" stroke="#d7dce3" stroke-width="1"/>
<line x1="270" y1="368" x2="270" y2="500" stroke="#d7dce3" stroke-width="1"/>
<line x1="392" y1="368" x2="392" y2="500" stroke="#d7dce3" stroke-width="1"/>
<line x1="632" y1="368" x2="632" y2="500" stroke="#d7dce3" stroke-width="1"/>
<line x1="852" y1="368" x2="852" y2="500" stroke="#d7dce3" stroke-width="1"/>
<line x1="954" y1="368" x2="954" y2="500" stroke="#d7dce3" stroke-width="1"/>
<text x="272" y="522" font-family="DejaVu Sans, Segoe UI, Verdana, sans-serif" font-size="11" fill="#b3261e" font-weight="700">3  Botao direito na grade: Salvar Resultados como... (CSV)  |  Copiar com Cabecalhos</text>
<text x="272" y="538" font-family="DejaVu Sans, Segoe UI, Verdana, sans-serif" font-size="11" fill="#b3261e" font-weight="700">Ctrl+T alterna para saida em texto  |  Ctrl+Shift+F salva direto em arquivo</text>
<text x="272" y="560" font-family="DejaVu Sans, Segoe UI, Verdana, sans-serif" font-size="10.5" fill="#5b6b7f">(1.284 linhas afetadas)</text>
<rect x="10" y="584" width="960" height="26" rx="0" fill="#eef1f5" stroke="#c9ced6" stroke-width="1"/>
<text x="24" y="601" font-family="DejaVu Sans, Segoe UI, Verdana, sans-serif" font-size="10.5" fill="#5b6b7f">Consulta executada com exito.    SRV-SEFAZ\FISCO (16.0 RTM)    SEFAZ\auditor.fiscal    curso_integridade_fiscal    00:00:02    1284 linhas</text>
</svg>