<svg xmlns="http://www.w3.org/2000/svg" viewBox="0 0 860 420" font-family="Segoe UI, Arial, sans-serif">
  <rect width="860" height="420" fill="#ffffff"/>
  <rect x="10" y="10" width="840" height="400" fill="#f5f5f5" stroke="#a8a8a8"/>
  <rect x="10" y="10" width="840" height="28" fill="#3c5a78"/>
  <text x="24" y="29" fill="#ffffff" font-size="13">Visualizador de Arquivos de Log — Histórico da Tarefa</text>

  <rect x="20" y="48" width="820" height="200" fill="#ffffff" stroke="#c8c8c8"/>
  <rect x="20" y="48" width="820" height="22" fill="#eef1f4" stroke="#cfd6dd"/>
  <g font-size="10" font-weight="bold" fill="#243b53">
    <text x="34" y="63">Data/Hora</text><text x="180" y="63">Tarefa</text><text x="380" y="63">Etapa</text><text x="600" y="63">Status</text><text x="700" y="63">Duração</text><text x="790" y="63">Linhas</text>
  </g>
  <g font-size="10" fill="#222">
    <text x="34" y="88">10/08/2026 03:00:02</text><text x="180" y="88">JOB_CARGA_NFE_DIARIA</text><text x="380" y="88">(Tarefa concluída)</text><text x="700" y="88">00:04:37</text>
    <circle cx="606" cy="85" r="5" fill="#2d9c2d"/><text x="616" y="88" fill="#2d6a2d">Êxito</text>
    <text x="34" y="112">10/08/2026 03:00:02</text><text x="180" y="112">↳</text><text x="380" y="112">1 — Preparar staging</text><text x="700" y="112">00:00:03</text><text x="790" y="112">—</text>
    <circle cx="606" cy="109" r="5" fill="#2d9c2d"/><text x="616" y="112" fill="#2d6a2d">Êxito</text>
    <text x="34" y="136">10/08/2026 03:00:05</text><text x="180" y="136">↳</text><text x="380" y="136">2 — Carregar CSV (BULK INSERT)</text><text x="700" y="136">00:02:41</text><text x="790" y="136">184.302</text>
    <circle cx="606" cy="133" r="5" fill="#2d9c2d"/><text x="616" y="136" fill="#2d6a2d">Êxito</text>
    <text x="34" y="160">10/08/2026 03:02:46</text><text x="180" y="160">↳</text><text x="380" y="160">3 — Validar e mesclar (MERGE)</text><text x="700" y="160">00:01:28</text><text x="790" y="160">183.911</text>
    <circle cx="606" cy="157" r="5" fill="#2d9c2d"/><text x="616" y="160" fill="#2d6a2d">Êxito</text>
    <text x="34" y="184">10/08/2026 03:04:14</text><text x="180" y="184">↳</text><text x="380" y="184">4 — Atualizar estatísticas e log</text><text x="700" y="184">00:00:19</text><text x="790" y="184">—</text>
    <circle cx="606" cy="181" r="5" fill="#2d9c2d"/><text x="616" y="184" fill="#2d6a2d">Êxito</text>
    <text x="34" y="208">10/08/2026 03:04:33</text><text x="180" y="208">↳</text><text x="380" y="208">5 — Alertar auditoria</text><text x="700" y="208">00:00:06</text><text x="790" y="208">7 casos</text>
    <circle cx="606" cy="205" r="5" fill="#2d9c2d"/><text x="616" y="208" fill="#2d6a2d">Êxito</text>
  </g>
  <line x1="20" y1="96" x2="840" y2="96" stroke="#eef0f2"/>
  <line x1="20" y1="216" x2="840" y2="216" stroke="#dde3e8"/>
  <rect x="20" y="218" width="820" height="24" fill="#fdf0ef"/>
  <g font-size="10" fill="#222">
    <text x="34" y="232">09/08/2026 03:00:01</text><text x="180" y="232">JOB_CARGA_NFE_DIARIA</text><text x="380" y="232">2 — Carregar CSV (BULK INSERT)</text><text x="700" y="232">00:00:12</text><text x="790" y="232">0</text>
    <circle cx="606" cy="229" r="5" fill="#c0392b"/><text x="616" y="232" fill="#a3271b">Falha</text>
  </g>

  <text x="24" y="270" font-size="11" font-weight="bold" fill="#243b53">Detalhes da linha selecionada</text>
  <rect x="20" y="278" width="820" height="118" fill="#ffffff" stroke="#c8c8c8"/>
  <g font-family="Consolas, monospace" font-size="10" fill="#333">
    <text x="32" y="298">Executado como usuário: DOMINIO\svc_sqlagent.</text>
    <text x="32" y="316">Não foi possível abrir em massa o arquivo "E:\Cargas\NFe\nfe_20260809.csv".</text>
    <text x="32" y="334">Mensagem do sistema operacional: O sistema não pode encontrar o arquivo especificado.</text>
    <text x="32" y="352">[SQLSTATE 42000] (Erro 4860). A etapa falhou.</text>
  </g>
  <rect x="32" y="362" width="796" height="26" rx="3" fill="#fff8e5" stroke="#e0c068"/>
  <text x="42" y="379" font-size="10" fill="#7a5c00">* Para o auditor: se a base "não tem os dados de ontem", esta tela é a evidência objetiva a levar ao DBA — mostra que a carga falhou e por quê.</text>
</svg>
